<svg width="362.43406497504196" height="397.93543090820305">
<g id="SvgjsG1016" featurekey="nameFeature-0" transform="matrix(2.1818177742749505,0,0,2.1818177742749505,-3.4909082307655632,293.8181867087006)" fill="#eeeeee"><path d="M6.92 40 l0 -22.96 l-5.32 0 l0 -5.04 l15.68 0 l0 5.04 l-5.32 0 l0 22.96 l-5.04 0 z M24.372 40 l0 -28 l11.96 0 l3.72 3.72 l0 10.2 l-2.16 2.2 l3.08 11.88 l-5.2 0 l-2.72 -10.36 l-3.64 0 l0 10.36 l-5.04 0 z M29.412 24.6 l4.84 0 l0.76 -0.76 l0 -6.04 l-0.76 -0.76 l-4.84 0 l0 7.56 z M47.664 40 l0 -28 l5.04 0 l0 28 l-5.04 0 z M59.796 40 l0 -28 l5.36 0 l4.16 10.6 l4.16 -10.6 l5.36 0 l0 28 l-5.04 0 l0 -15 l-2.48 6.32 l-4 0 l-2.48 -6.32 l0 15 l-5.04 0 z M91.248 40 l0 -22.96 l-5.32 0 l0 -5.04 l15.68 0 l0 5.04 l-5.32 0 l0 22.96 l-5.04 0 z M108.69999999999999 40 l0 -28 l5.04 0 l0 28 l-5.04 0 z M120.832 40 l0 -28 l5.36 0 l4.16 10.6 l4.16 -10.6 l5.36 0 l0 28 l-5.04 0 l0 -15 l-2.48 6.32 l-4 0 l-2.48 -6.32 l0 15 l-5.04 0 z M146.964 40 l0 -28 l13.72 0 l0 5.04 l-8.68 0 l0 6.44 l6.44 0 l0 5.04 l-6.44 0 l0 6.44 l8.68 0 l0 5.04 l-13.72 0 z"></path></g>
</svg>